<svg xmlns="http://www.w3.org/2000/svg" viewBox="0 0 700 1060" class="field-icon">
  <path class="field-icon__pitch" d="M0 0h700v1060H0z"/>
  <path fill="none" stroke="#fff" stroke-width="5" d="M423.5 869h2c-16.7-23.5-44.3-39-75.5-39-31.2 0-58.7 15.5-75.5 39h2"/>
  <path fill="none" stroke="#fff" stroke-width="5" d="M153 1030h-2.5V869h399v161H547"/>
  <path fill="#fff"  d="M355 922.6a5 5 0 1 1-10 0 5 5 0 1 1 10 0zm1-392.6a6 6 0 1 1-12 0 6 6 0 1 1 12 0zm-1-392.4a5 5 0 1 1-10 0 5 5 0 1 1 10 0z"/>
  <path fill="none" stroke="#fff" stroke-width="5" d="M30.6 1016c7-.2 12.7 5.4 13 12.6v.3m218.8 1H260v-52h180v52h-2.4m5-500c0 51-41.5 92.3-92.6 92.3-51 0-92.5-41.4-92.5-92.5 0-51 41.4-92.6 92.5-92.6 51 0 92.5 41.4 92.5 92.5zm-412.2 0h639.2m-232-500h2.5v52H260V30h2.5"/>
  <path fill="none" stroke="#fff" stroke-width="5" d="M30 30h640v1000H30V30z"/>
  <path fill="none" stroke="#fff" stroke-width="5" d="M547 30h2.5v161h-399V30h2.5"/>
  <path fill="none" stroke="#fff" stroke-width="5" d="M276.3 191h-2c16.7 23.8 44.4 39.4 75.7 39.4 31.3 0 59-15.6 75.8-39.5h-2M668.6 43.5c-7 .2-12.8-5.5-13-12.6M44.3 31c.2 7-5.5 12.7-12.6 13h-.3m624 984.5c-.3-7 5.4-12.8 12.5-13"/>
</svg>
